<?xml version="1.0" standalone="no"?>
<!DOCTYPE svg PUBLIC "-//W3C//DTD SVG 20010904//EN"
 "http://www.w3.org/TR/2001/REC-SVG-20010904/DTD/svg10.dtd">
<svg version="1.0" xmlns="http://www.w3.org/2000/svg"
 width="192.000000pt" height="192.000000pt" viewBox="0 0 192.000000 192.000000"
 preserveAspectRatio="xMidYMid meet">
<metadata>
Created by potrace 1.11, written by Peter Selinger 2001-2013
</metadata>
<g transform="translate(0.000000,192.000000) scale(0.100000,-0.100000)"
fill="#000000" stroke="none">
<path d="M122 1903 c-40 -13 -78 -47 -100 -88 -14 -27 -16 -117 -17 -844 0
-862 0 -857 47 -908 56 -60 7 -57 897 -58 861 0 858 0 908 47 60 56 57 8 58
897 0 862 0 858 -47 908 -56 60 -7 57 -897 58 -597 0 -824 -3 -849 -12z"/>
</g>
</svg>
